<svg width="34" height="34" viewBox="0 0 34 34" fill="none" xmlns="http://www.w3.org/2000/svg">
<path fill-rule="evenodd" clip-rule="evenodd" d="M7.32544 7.32544C7.75935 6.89152 8.46287 6.89152 8.89679 7.32544L17 15.4287L25.1032 7.32544C25.5371 6.89152 26.2406 6.89152 26.6746 7.32544C27.1085 7.75935 27.1085 8.46287 26.6746 8.89679L18.5713 17L26.6746 25.1032C27.1085 25.5371 27.1085 26.2406 26.6746 26.6746C26.2406 27.1085 25.5371 27.1085 25.1032 26.6746L17 18.5713L8.89679 26.6746C8.46287 27.1085 7.75935 27.1085 7.32544 26.6746C6.89152 26.2406 6.89152 25.5371 7.32544 25.1032L15.4287 17L7.32544 8.89679C6.89152 8.46287 6.89152 7.75935 7.32544 7.32544Z" fill="#1A3129"/>
</svg>
