<svg width="34" height="34" viewBox="0 0 34 34" fill="none" xmlns="http://www.w3.org/2000/svg">
<path fill-rule="evenodd" clip-rule="evenodd" d="M17 25.5C16.2958 25.5 15.725 24.9292 15.725 24.225L15.725 12.9405L12.394 16.6087C11.906 17.1163 11.0988 17.1321 10.5912 16.6441C10.0837 16.156 10.0678 15.3489 10.5559 14.8413L16.0809 8.89129C16.3213 8.64129 16.6531 8.5 17 8.5C17.3468 8.5 17.6786 8.64129 17.919 8.89129L23.444 14.8413C23.9321 15.3489 23.9163 16.156 23.4087 16.6441C22.9011 17.1321 22.094 17.1163 21.6059 16.6087L18.275 12.9405V24.225C18.275 24.9292 17.7041 25.5 17 25.5Z" fill="white"/>
</svg>
