<svg width="195" height="46" viewBox="0 0 195 46" fill="none" xmlns="http://www.w3.org/2000/svg">
<path d="M16.8988 14.2498C11.7465 9.23683 15.2956 0.5 22.4841 0.5C29.6727 0.5 33.2217 9.23684 28.0695 14.2498L22.4841 19.6842L16.8988 14.2498Z" fill="#CBEA7B"/>
<path d="M16.9312 31.7502C11.779 36.7632 15.328 45.5 22.5165 45.5C29.7051 45.5 33.2541 36.7632 28.1019 31.7502L22.5165 26.3158L16.9312 31.7502Z" fill="#CBEA7B"/>
<path d="M13.7498 28.6009C8.73683 33.7532 0 30.2042 0 23.0156C0 15.827 8.73684 12.278 13.7498 17.4302L19.1842 23.0156L13.7498 28.6009Z" fill="#CBEA7B"/>
<path d="M31.2502 28.5687C36.2632 33.7209 45 30.1719 45 22.9834C45 15.7948 36.2632 12.2458 31.2502 17.398L25.8158 22.9834L31.2502 28.5687Z" fill="#CBEA7B"/>
<path d="M64.9988 26.4428V15.1253H68.4188V30.8753H63.4913L56.5838 19.5803H56.2013V30.8753H52.7812V15.1253H57.3938V15.1478H57.7088L64.5938 26.4428H64.9988Z" fill="white"/>
<path d="M80.8613 18.2528H84.2812V30.8753H80.8613V29.0303H80.7038C79.8937 30.1553 78.7463 30.8753 76.4737 30.8753C71.1412 30.8753 71.0063 26.4203 71.0063 24.5753V18.2528H74.4037V24.5753C74.4037 25.5653 74.1788 27.9503 77.4638 27.9503C80.4113 27.9503 80.8613 26.0603 80.8613 24.3503V18.2528Z" fill="white"/>
<path d="M91.5262 21.1778V25.6553V25.9253C91.5262 27.7478 92.3362 27.5003 95.6212 27.3203V30.6503C95.6212 30.6503 94.9462 30.8753 91.5262 30.8753C88.0837 30.8753 88.0837 28.0628 88.0837 26.2403V21.1778H86.4188V18.2978H88.0837V14.6528H91.5262V18.2978H95.6212V21.1778H91.5262Z" fill="white"/>
<path d="M105.254 18.2528C106.154 18.2528 106.897 18.4553 107.482 18.5903L106.942 21.8078C106.627 21.7178 105.749 21.5378 104.669 21.5378C102.127 21.5378 101.384 23.5178 101.384 25.2278V30.8753H97.9641V18.2528H101.384V20.1203H101.587C102.307 18.9053 103.072 18.2528 105.254 18.2528Z" fill="white"/>
<path d="M112.709 30.8753H109.312V18.3428H112.709V30.8753ZM112.709 17.4428H109.312V14.3828H112.709V17.4428Z" fill="white"/>
<path d="M120.164 21.1778V25.6553V25.9253C120.164 27.7478 120.974 27.5003 124.259 27.3203V30.6503C124.259 30.6503 123.584 30.8753 120.164 30.8753C116.721 30.8753 116.721 28.0628 116.721 26.2403V21.1778H115.056V18.2978H116.721V14.6528H120.164V18.2978H124.259V21.1778H120.164Z" fill="white"/>
<path d="M129.933 30.8753H126.536V18.3428H129.933V30.8753ZM129.933 17.4428H126.536V14.3828H129.933V17.4428Z" fill="white"/>
<path d="M139.3 18.0278C143.148 18.0278 146.343 20.0753 146.343 24.4628C146.343 28.8953 143.148 30.8753 139.3 30.8753C135.475 30.8753 132.28 28.8278 132.28 24.4628C132.28 20.1203 135.475 18.0278 139.3 18.0278ZM139.3 27.7703C141.46 27.7703 142.99 26.7353 142.99 24.4628C142.99 22.1228 141.46 21.1553 139.3 21.1553C137.163 21.1553 135.633 22.0778 135.633 24.4628C135.633 26.8253 137.163 27.7703 139.3 27.7703Z" fill="white"/>
<path d="M156.445 18.2528C161.777 18.2528 161.912 22.7303 161.912 24.5753V30.8753H158.515V24.5753C158.515 23.5853 158.717 21.2003 155.455 21.2003C152.485 21.2003 152.057 23.0903 152.057 24.8003V30.8753H148.637V18.2528H152.057V20.1203H152.215C153.025 18.9953 154.172 18.2528 156.445 18.2528Z" fill="white"/>
<path d="M167.887 30.8753H164.489V18.3428H167.887V30.8753ZM167.887 17.4428H164.489V14.3828H167.887V17.4428Z" fill="white"/>
<path d="M176.719 23.2253C179.577 23.6528 182.817 24.1478 182.817 27.1403C182.817 30.2678 180.567 30.8753 176.697 30.8753C173.839 30.8753 171.882 30.3578 170.869 29.3453C169.992 28.4678 169.992 27.4103 170.014 26.7578V26.5103H173.524V26.6228C173.524 27.7028 174.334 28.1978 176.607 28.1978C177.979 28.1978 179.284 28.0178 179.284 27.1853C179.284 26.2403 178.069 26.0603 176.697 25.9028C176.517 25.8803 176.337 25.8578 176.157 25.8353C172.534 25.3628 170.284 24.5528 170.284 22.0328C170.284 20.2778 171.297 18.1853 176.157 18.1853C181.377 18.1853 182.479 20.5028 182.479 22.4378V22.5503H178.992V22.4378C178.992 21.4478 178.137 20.9078 176.157 20.9078C174.244 20.9078 173.839 21.6053 173.839 21.9878C173.839 22.5503 174.222 22.8653 176.427 23.2028L176.719 23.2253Z" fill="white"/>
<path d="M189.501 21.1778V25.6553V25.9253C189.501 27.7478 190.311 27.5003 193.596 27.3203V30.6503C193.596 30.6503 192.921 30.8753 189.501 30.8753C186.059 30.8753 186.059 28.0628 186.059 26.2403V21.1778H184.394V18.2978H186.059V14.6528H189.501V18.2978H193.596V21.1778H189.501Z" fill="white"/>
</svg>
